<?xml version="1.0" encoding="UTF-8"?>
<svg width="720px" height="371px" viewBox="0 0 720 371" version="1.1" xmlns="http://www.w3.org/2000/svg" xmlns:xlink="http://www.w3.org/1999/xlink">
    <!-- Generator: Sketch 43.2 (39069) - http://www.bohemiancoding.com/sketch -->
    <title>logo-doggis</title>
    <desc>Created with Sketch.</desc>
    <defs></defs>
    <g id="Page-1" stroke="none" stroke-width="1" fill="none" fill-rule="evenodd">
        <g id="logo-doggis">
            <g id="Group" transform="translate(113.000000, 120.000000)">
                <path d="M491.2506,67.0996 C487.5646,58.0526 479.7276,52.7656 469.3056,49.3456 C471.3166,46.8166 472.5946,43.7956 472.9926,40.5336 C473.0336,40.1926 473.0436,39.8536 473.0646,39.5136 C474.4796,39.9386 475.9756,40.1776 477.5276,40.1776 C478.1026,40.1776 478.6626,40.1386 479.2176,40.0816 C479.2666,40.0776 479.3166,40.0686 479.3656,40.0626 C479.7956,40.0136 480.2196,39.9506 480.6356,39.8696 C480.7566,39.8446 480.8756,39.8156 480.9946,39.7876 C481.3636,39.7066 481.7296,39.6156 482.0866,39.5066 C482.1806,39.4796 482.2686,39.4516 482.3596,39.4216 C482.7716,39.2886 483.1766,39.1416 483.5726,38.9766 C483.5926,38.9686 483.6116,38.9616 483.6296,38.9536 C485.0576,38.3536 486.3696,37.5626 487.5216,36.5866 L487.5946,36.4726 C490.8246,33.6876 492.8796,29.5746 492.8796,24.9726 C492.8796,16.5856 486.0806,9.7866 477.6956,9.7866 C471.6486,9.7866 466.4456,13.3286 464.0006,18.4416 C463.5476,19.2986 463.1626,20.1996 462.8836,21.1426 C455.2816,14.7196 441.0436,5.8216 420.4776,5.8216 C403.7816,5.8216 381.6996,10.6266 370.5106,23.8016 C368.3556,20.2676 364.9986,17.6836 360.9366,16.5016 C359.3836,16.0496 357.7796,15.8206 356.1706,15.8206 C354.5846,15.8206 353.0496,16.0456 351.5866,16.4506 C348.9576,12.3326 344.0376,9.6416 338.6806,9.6416 C337.9366,9.6416 337.1806,9.6926 336.4326,9.7916 C334.6726,9.9586 333.2626,10.4706 332.2216,10.8486 C331.3406,11.1686 331.0236,11.2726 330.6056,11.2726 L330.6026,11.2726 C329.8326,11.2626 327.9536,11.1616 325.9616,11.0536 C322.0026,10.8396 316.5806,10.5486 312.5536,10.5486 C310.9736,10.5486 309.6996,10.5926 308.6626,10.6826 C303.0596,11.1696 292.9656,14.6806 286.5576,21.0196 C286.4906,20.7946 286.4286,20.5716 286.3506,20.3396 C284.4556,14.6676 278.5866,10.7066 272.0766,10.7066 C271.3326,10.7066 270.5806,10.7566 269.8306,10.8566 C268.0746,11.0266 266.6706,11.5366 265.6296,11.9146 C264.7526,12.2346 264.4366,12.3376 264.0106,12.3376 L264.0066,12.3376 C263.2366,12.3266 261.3596,12.2266 259.3736,12.1186 C255.4186,11.9066 250.0006,11.6136 245.9696,11.6136 C244.3816,11.6136 243.1026,11.6576 242.0636,11.7486 C236.0066,12.2756 224.6806,16.3286 218.4616,23.6856 C217.1006,25.2966 215.8506,27.0626 214.7306,28.9196 C214.1996,25.4376 212.5986,22.2246 210.0666,19.7036 C206.9246,16.5596 202.7426,14.8276 198.2956,14.8276 C193.8506,14.8276 189.6706,16.5566 186.5206,19.7026 C185.1606,21.0616 179.2546,22.8816 175.2856,24.1036 C167.4536,26.5136 155.9716,30.0596 147.4186,38.4686 C144.5476,31.9556 140.2896,25.9166 134.7896,20.7726 C122.5336,9.3046 104.5166,2.4436 82.6846,0.9286 C79.3366,0.6986 75.9476,0.5816 72.6156,0.5816 C35.9886,0.5816 10.2646,13.5226 2.0376,36.0856 C-4.1454,53.0596 5.6076,66.6876 6.7486,68.1976 C10.3146,72.8926 15.7386,75.5856 21.6316,75.5856 C25.7176,75.5856 29.6236,74.2866 32.9206,71.8336 C33.3796,71.4916 33.8186,71.1326 34.2386,70.7566 C34.6216,79.0666 36.8506,86.3676 40.9006,92.5426 C45.8526,100.0916 55.8036,109.2856 75.1056,110.2086 C77.1466,110.3046 79.1886,110.3546 81.1726,110.3546 C105.1936,110.3546 120.6646,103.1976 129.4126,97.1936 C133.4776,94.4066 137.0436,91.2426 140.0746,87.8046 C145.6136,98.7766 156.3656,106.5746 170.2526,108.9066 C172.9046,109.3516 175.5986,109.5776 178.2566,109.5776 L178.2586,109.5776 C186.2116,109.5776 193.7566,107.5806 200.2756,103.9866 C201.1896,108.2876 203.0276,112.5426 206.2506,116.2016 C214.0456,125.0426 224.5686,129.8476 237.5316,130.4796 C238.2916,130.5156 239.0616,130.5356 239.8386,130.5356 C247.6276,130.5356 262.2116,128.5626 273.3526,115.6796 C281.0946,124.1676 291.4366,128.7946 304.1316,129.4136 C304.8896,129.4516 305.6586,129.4706 306.4366,129.4706 C314.3556,129.4706 329.3166,127.4556 340.5296,113.9696 C343.0296,110.9616 344.7976,107.7716 346.0216,104.5586 C349.0826,108.9866 354.5206,111.6786 360.6546,111.6786 L360.6566,111.6786 C363.4926,111.6786 366.2586,111.0656 368.6546,109.9046 C372.5006,108.0446 375.3856,104.8836 376.8856,100.9726 C387.2016,104.8886 405.4186,110.7756 425.0686,112.3236 C430.8266,112.7756 436.2586,113.0046 441.2156,113.0046 C464.7096,113.0046 480.0826,107.8726 488.2176,97.3106 C492.0066,92.3786 494.0106,86.4856 494.0106,80.2736 C494.0106,76.0056 493.0806,71.5706 491.2506,67.0996" id="Fill-1" fill="#FFFFFF"></path>
                <path d="M82.1686,8.4317 C102.2446,9.8247 118.6686,15.9887 129.6526,26.2637 C139.5186,35.4947 144.7936,47.9887 144.1196,60.5357 C143.5006,72.0527 136.5886,83.1507 125.1586,90.9927 C116.4026,96.9997 100.6766,103.9027 75.4656,102.6967 C59.3286,101.9257 51.1806,94.5047 47.1916,88.4197 C36.4806,72.0917 44.5906,49.3917 45.5536,46.8587 C47.7626,41.0277 54.2606,38.1037 60.0986,40.2867 C65.9366,42.4727 68.9006,48.9887 66.7386,54.8377 C65.0276,59.4597 62.6296,70.7247 66.1356,76.0257 C67.7466,78.4657 71.2526,79.8337 76.5496,80.0847 C109.5986,81.6657 121.1136,66.7847 121.5146,59.3227 C122.1916,46.6887 109.8036,33.0357 80.6066,31.0157 C59.6456,29.5727 34.9866,33.7677 30.3736,46.4137 C29.7076,48.2387 30.8326,50.0197 30.9636,50.2227 L30.7736,49.9607 C34.4246,54.9777 33.4206,62.0957 28.4366,65.7937 C23.4556,69.5037 16.4906,68.5897 12.7386,63.6487 C11.8596,62.4867 4.2726,51.9207 9.1026,38.6607 C18.3546,13.2887 52.9106,6.4157 82.1686,8.4317" id="Fill-3" fill="#C22821"></path>
                <path d="M195.194,73.3028 C191.579,82.0768 181.946,84.7308 174.522,83.4848 C171.669,83.0008 162.301,80.6808 161.741,70.9988 C161.694,70.1988 161.671,69.4298 161.671,68.7038 C161.671,55.8658 168.798,53.0748 182.87,48.7458 C186.411,47.6578 189.999,46.5318 193.419,45.1088 C192.342,46.6568 191.782,48.4808 191.782,50.3158 C191.782,52.4688 192.53,54.6318 194.051,56.3758 L193.936,56.2418 C194.501,56.9288 199.342,63.2378 195.194,73.3028 M207.647,44.1878 C205.821,42.1478 203.292,41.1508 200.762,41.1898 C202.169,40.2218 203.518,39.1638 204.749,37.9338 C206.534,36.1528 207.426,33.8168 207.426,31.4758 C207.426,29.1398 206.536,26.8008 204.751,25.0218 C201.188,21.4578 195.409,21.4538 191.839,25.0178 C189.151,27.7088 183.491,29.4458 177.503,31.2898 C163.276,35.6668 141.78,42.2798 143.508,72.0608 C144.391,87.2278 155.378,98.7828 171.499,101.4898 C189.028,104.4348 205.712,95.7068 212.075,80.2658 C219.018,63.4318 212.561,49.6668 207.647,44.1878" id="Fill-5" fill="#C22821"></path>
                <path d="M344.2409,52.5293 C344.1919,52.8613 343.0549,60.7893 343.1649,70.1193 C343.3129,83.0173 350.8869,97.8913 351.7489,99.5423 C354.0359,103.9223 360.8369,105.3343 365.3799,103.1343 C369.9269,100.9363 371.7619,95.5953 369.4849,91.2063 C367.6749,87.7163 362.9499,77.0173 362.8619,69.5713 C362.7699,61.6343 363.7489,54.7133 363.7619,54.6433 C364.4599,49.7873 360.9459,45.2963 355.9069,44.6143 C350.8679,43.9383 344.9519,47.6693 344.2409,52.5293" id="Fill-7" fill="#C22821"></path>
                <path d="M347.3542,29.6641 L346.8562,31.2541 C345.3812,35.9531 348.1412,40.9121 353.0102,42.3321 C357.8852,43.7521 363.0302,41.0881 364.4992,36.3911 L364.9952,34.8051 C366.4692,30.1001 363.7112,25.1411 358.8362,23.7231 C353.9632,22.3051 348.8212,24.9641 347.3542,29.6641" id="Fill-9" fill="#C22821"></path>
                <path d="M373.946,31.8711 C372.032,35.0991 371.079,38.5471 371.079,42.0581 C371.079,45.9541 372.253,49.9281 374.6,53.7731 C381.729,65.4521 401.594,67.6801 426.747,70.5031 C435.848,71.5221 445.27,72.5761 452.762,74.0981 C461.087,75.7911 463.889,77.4411 464.63,77.9971 C465.055,79.1521 465.145,79.8831 465.145,80.2251 C465.145,80.3981 465.128,80.4781 465.128,80.4781 C464.305,81.8181 455.446,86.5271 427.393,84.3211 C403.61,82.4471 380.893,72.1571 380.669,72.0571 C375.35,69.6181 368.989,71.7971 366.46,76.9221 C363.928,82.0491 366.18,88.1821 371.493,90.6261 C372.559,91.1141 397.866,102.6381 425.657,104.8261 C455.657,107.1821 474.167,103.2281 482.255,92.7301 C484.428,89.8981 486.491,85.7691 486.491,80.2731 C486.491,77.2481 485.868,73.8031 484.288,69.9371 C478.442,55.5901 455.628,53.0291 429.204,50.0651 C420.481,49.0891 411.462,48.0761 404.317,46.6691 C396.038,45.0391 393.442,43.4941 392.807,43.0291 C392.567,42.5771 392.464,42.2831 392.432,42.1421 C393.432,39.7031 404.274,33.9121 420.477,33.9121 C437.153,33.9121 446.217,44.4181 446.598,44.8691 L446.53,44.7831 C450.178,49.2281 456.882,50.0251 461.507,46.5241 C466.13,43.0211 466.966,36.6061 463.352,32.1381 C462.731,31.3701 447.841,13.3421 420.477,13.3421 C402.784,13.3421 381.536,19.0701 373.946,31.8711" id="Fill-11" fill="#C22821"></path>
                <path d="M476.3835,24.9444 L477.2095,24.9444 C478.1685,24.9444 478.9465,24.6294 478.9465,23.8634 C478.9465,23.1934 478.4425,22.7464 477.3425,22.7464 C476.8895,22.7464 476.5705,22.7904 476.3835,22.8344 L476.3835,24.9444 Z M476.3385,29.0674 L474.6045,29.0674 L474.6045,21.7574 C475.2835,21.6244 476.2485,21.4864 477.4795,21.4864 C478.9015,21.4864 479.5395,21.7164 480.0865,22.0744 C480.4985,22.3854 480.8195,22.9674 480.8195,23.6424 C480.8195,24.4924 480.1785,25.1214 479.2665,25.3924 L479.2665,25.4804 C479.9945,25.7014 480.4065,26.2874 480.6415,27.2714 C480.8675,28.3934 481.0025,28.8454 481.1865,29.0674 L479.3115,29.0674 C479.0825,28.8004 478.9465,28.1714 478.7175,27.3214 C478.5825,26.5134 478.1215,26.1504 477.1625,26.1504 L476.3385,26.1504 L476.3385,29.0674 Z M477.4795,19.3844 C474.1925,19.3844 471.7175,22.0234 471.7175,25.2594 C471.7175,28.5314 474.1925,31.1294 477.5705,31.1294 C480.8675,31.1774 483.2855,28.5314 483.2855,25.2594 C483.2855,22.0234 480.8675,19.3844 477.5285,19.3844 L477.4795,19.3844 Z M477.5705,17.9034 C481.8675,17.9034 485.2055,21.1754 485.2055,25.2594 C485.2055,29.4264 481.8675,32.6584 477.5285,32.6584 C473.2335,32.6584 469.7955,29.4264 469.7955,25.2594 C469.7955,21.1754 473.2335,17.9034 477.5285,17.9034 L477.5705,17.9034 Z" id="Fill-13" fill="#C22821"></path>
                <path d="M260.7174,40.8399 C260.7174,43.6099 262.1274,46.1689 261.6044,48.7809 C261.0824,51.3969 260.6134,53.4859 255.9634,58.1859 C251.3154,62.8899 242.0144,61.2169 238.4104,59.0739 C229.7354,54.2699 230.8094,45.3299 235.3244,39.1169 C240.1924,32.4329 253.0884,34.4169 254.8674,34.5739 C256.6414,34.7309 263.7444,35.0469 263.7444,35.0469 C262.5414,35.6219 260.7174,38.0759 260.7174,40.8399 M279.2154,22.7209 C278.4044,20.2929 275.1624,17.6649 270.6764,18.3319 C268.6234,18.4779 267.0024,19.9079 263.8994,19.8579 C260.7994,19.8139 247.6294,18.8129 242.7134,19.2399 C237.8034,19.6679 228.6394,23.2949 224.2034,28.5429 C219.7664,33.7909 216.7134,41.2379 216.5224,46.9139 C216.3304,52.5919 217.0924,61.3689 225.3034,68.4349 C233.5084,75.4979 244.3854,80.1679 248.2504,82.6969 C252.1134,85.2279 257.3154,89.5649 254.6454,95.8169 C252.9754,99.2979 246.6274,103.1689 239.7114,103.2149 C232.7914,103.2599 226.9224,100.1569 225.8734,98.0599 C224.8244,95.9629 226.2564,95.2929 226.5904,95.0059 C226.9244,94.7209 231.9344,90.8559 231.0744,85.8979 C230.2134,80.9299 228.0184,77.2609 222.1514,76.6859 C216.2834,76.1109 211.3194,81.6489 209.1704,86.2319 C207.0264,90.8109 204.8324,103.2149 211.8914,111.2279 C218.9574,119.2429 228.1154,122.4909 237.8994,122.9679 C247.6784,123.4439 259.6994,120.3909 268.1454,110.2279 C276.5924,100.0659 274.4444,87.3729 271.9144,82.6969 C269.3894,78.0229 264.4054,73.1859 262.9404,72.1649 C262.9404,72.1649 274.4184,65.4959 276.4614,52.3179 C278.5064,39.1369 273.3994,35.5369 271.5024,34.1259 C271.5024,34.1259 282.5044,32.5719 279.2154,22.7209" id="Fill-15" fill="#C22821"></path>
                <path d="M327.3131,39.7735 C327.3131,42.5445 328.7251,45.1035 328.2021,47.7165 C327.6821,50.3315 327.2111,52.4195 322.5631,57.1205 C317.9131,61.8265 308.6121,60.1505 305.0081,58.0085 C296.3361,53.2045 297.4091,44.2635 301.9261,38.0525 C306.7881,31.3635 319.6861,33.3515 321.4611,33.5055 C323.2391,33.6665 330.3421,33.9825 330.3421,33.9825 C329.1411,34.5565 327.3131,37.0095 327.3131,39.7735 M345.8131,21.6565 C345.0001,19.2235 341.7601,16.5965 337.2741,17.2675 C335.2191,17.4095 333.6001,18.8395 330.4971,18.7925 C327.3951,18.7485 314.2271,17.7485 309.3151,18.1735 C304.3971,18.6035 295.2371,22.2305 290.8011,27.4785 C286.3641,32.7255 283.3091,40.1735 283.1201,45.8495 C282.9281,51.5255 283.6941,60.3045 291.9011,67.3685 C300.1041,74.4285 310.9831,79.1035 314.8481,81.6345 C318.7111,84.1585 323.9151,88.5005 321.2431,94.7525 C319.5711,98.2335 313.2271,102.1025 306.3071,102.1505 C299.3911,102.1955 293.5181,99.0935 292.4691,96.9955 C291.4221,94.8985 292.8541,94.2285 293.1901,93.9425 C293.5201,93.6555 298.5301,89.7905 297.6721,84.8315 C296.8111,79.8665 294.6201,76.1955 288.7491,75.6215 C282.8791,75.0455 277.9171,80.5845 275.7701,85.1635 C273.6241,89.7465 271.4301,102.1505 278.4911,110.1645 C285.5511,118.1785 294.7111,121.4255 304.4971,121.9025 C314.2761,122.3775 326.2971,119.3245 334.7471,109.1645 C343.1901,99.0005 341.0381,86.3085 338.5121,81.6345 C335.9871,76.9585 331.0011,72.1215 329.5401,71.0995 C329.5401,71.0995 341.0201,64.4315 343.0591,51.2525 C345.1021,38.0725 339.9991,34.4725 338.1041,33.0605 C338.1041,33.0605 349.1041,31.5075 345.8131,21.6565" id="Fill-17" fill="#C22821"></path>
            </g>
        </g>
    </g>
</svg>